<svg id="Layer_1" height="512" viewBox="0 0 512 512" width="512" xmlns="http://www.w3.org/2000/svg" data-name="Layer 1"><path d="m257.1 370.41-44.562 1.34c-.941 3.97-4.587 9.23-9.977 15.02.4.84 19.047 40.97 21.357 93.9a15.991 15.991 0 0 0 15.958 15.33 16.2 16.2 0 0 0 16.162-15.21c2.68-51.9 19.962-90.42 19.962-90.42v-.01a140.681 140.681 0 0 1 -18.9-19.95z" fill="#59b69b"/><path d="m241.773 411.729c-3.953-12.812-3.4-26.409.552-39.22.022-.071.433-.751 1.007-1.685l-30.8.926c-.941 3.97-4.587 9.23-9.977 15.02.4.84 19.047 40.97 21.357 93.9a15.991 15.991 0 0 0 15.964 15.33 16.275 16.275 0 0 0 15.09-10.3 16.1 16.1 0 0 1 -1.053-5.031 278.132 278.132 0 0 0 -12.14-68.94z" fill="#478e78"/><path d="m495.256 216.536c-54.93-100.25-118.97-110.32-154.49-89.88v.01c-14.3 8.22-23.97 21.38-26.57 35.6-9.12 49.84-42.7 75.03-42.7 75.03l7.89 32c74.51-13.23 41.58 38.82 114.62 65.92 15.6 5.79 29.22 3.8 40.99-2.91 38.76-22.08 57.47-95.34 60.98-110.53a7.449 7.449 0 0 0 -.72-5.24z" fill="#a364c6"/><path d="m435 332.3c-11.77 6.71-25.39 8.553-40.99 2.763-73.044-27.096-40.11-79.063-114.624-66.063h-.01c-6.25 17-20.376 31.506-21.376 32.116l-3.6 39.22 2.671 30.208a137.223 137.223 0 0 0 18.729 19.966c23.93 21.32 69.49 49.148 128.95 26.3a33.228 33.228 0 0 0 16.821-14.276c17.545-30.172 13.429-70.234 13.429-70.234z" fill="#8e56b2"/><path d="m253.036 16.846a8.768 8.768 0 0 0 -8.23.78c-74.33 49.61-67.24 119.31-67.09 120.72a49.875 49.875 0 0 1 16.22 25.42c6.95 27.59 21.97 48 33.78 60.6a118.786 118.786 0 0 0 16.48 14.86c.62-.22 1.24-.44 1.87-.65l23.58-1.75c.64.14 1.26.3 1.85.47 0 0 33.58-25.19 42.7-75.03 2.6-14.22 12.27-27.38 26.57-35.6v-.01c-12.25-73.41-71.06-102.856-87.73-109.81z" fill="#af86d3"/><path d="m248.906 296.8s-3.52-8.2-15.78-26.62a20.379 20.379 0 0 1 -3.44-11.84c-75.22-8.02-32.92 51.42-104.02 83.54-13.96 6.31-26.68 5.94-38.1 1.27-.43 1.09-25.1 63.08 14.41 88.51 22.15 14.25 77.73-20.06 100.7-44.72 5.39-5.79 8.99-11.05 9.93-15.02l26.79-47.98-.01-.01z" fill="#af86d3"/><path d="m227.716 224.366c-11.81-12.6-26.83-33.01-33.78-60.6a49.875 49.875 0 0 0 -16.22-25.42c-33.13-28.42-106.54-24.85-160.86 92.15a7.437 7.437 0 0 0 -.37 5.27c4.61 15.28 29.13 90.27 71.08 107.38 11.42 4.67 24.14 5.04 38.1-1.27 71.1-32.12 28.8-91.56 104.02-83.54l12.41-18.29c.69-.28 1.39-.55 2.1-.82a118.786 118.786 0 0 1 -16.48-14.86z" fill="#956fb2"/><path d="m131.976 431.656c-35.763-23.018-18.943-75.989-15.112-86.637a45.057 45.057 0 0 1 -29.3-1.873c-.43 1.09-25.1 63.08 14.41 88.51 7.32 4.709 18.292 4.112 30.53.316-.174-.105-.355-.205-.528-.316z" fill="#8367a0"/><g fill="#684e7f"><path d="m117.566 343.146c-41.95-17.11-66.47-92.1-71.08-107.38a7.437 7.437 0 0 1 .37-5.27c32.063-69.06 70.774-98.592 103.93-105.361-37.43-8.208-91.5 13.978-133.93 105.361a7.437 7.437 0 0 0 -.37 5.27c4.61 15.28 29.13 90.27 71.08 107.38a45.382 45.382 0 0 0 32.474.929c-.83-.289-1.656-.595-2.474-.929z"/><path d="m237.34 242.415c-37.9-21.634-75.9-22.949-101.115-20.241-27.289 2.929-45.533 10.91-46.3 11.248a6 6 0 1 0 4.863 10.971c.629-.279 58.522-25.265 120.026.31a232.179 232.179 0 0 0 -35.45.732c-39.129 3.9-69.815 18.253-88.741 41.494a6 6 0 0 0 9.305 7.578c40.976-50.319 129.818-36.36 130.9-36.184a6 6 0 0 0 6.9-4.933 5.931 5.931 0 0 0 .074-.865 5.983 5.983 0 0 0 -.473-10.11z"/><path d="m227.612 230.254a5.972 5.972 0 0 1 -3.656-1.246c-48.409-37.281-94.014-42.444-94.469-42.492a6 6 0 0 1 1.254-11.934c2 .21 49.464 5.586 100.537 44.918a6 6 0 0 1 -3.666 10.754z"/></g><path d="m377.87 182.569a6 6 0 0 0 -9.682-7.09c-.36.491-36.609 49.239-88.735 63.591a5.993 5.993 0 0 0 -.185 11.506 6 6 0 0 0 .971 11.387 60.989 60.989 0 0 0 13.53 1.434c34.023 0 71.886-23.881 73.69-25.033a6 6 0 0 0 -6.454-10.116c-.457.291-45.8 28.853-77.493 22.141 55.745-15.761 92.8-65.689 94.358-67.82z" fill="#7e4d9e"/><path d="m322.38 310.95a20.039 20.039 0 0 0 -27.94-13.91c-19.75 8.98-34.04 6.99-34.51 6.92l.28 27.89c.86.72 47.67 39.74 60.68 7.01 3.75-9.42 3.36-19.32 1.49-27.91z" fill="#d8ae59"/><path d="m260.05 332.1-20.82-8.33s-54.06 25.45-26.79 47.98c7.78 6.42 17.26 9.02 25.95 9.8 9.62.87 16.44-3.44 18.52-11.14a22.054 22.054 0 0 0 .48-8.31c-2.3-19.82 1.81-28.46 2.66-30z" fill="#d8ae59"/><path d="m192.05 279.07c-5.36 8.59-6.75 18.4-6.44 27.19a20.1 20.1 0 0 0 25.01 18.75c20.97-5.25 28.33-1.39 28.6-1.25l9.52-27.13s-37.89-47.69-56.69-17.56z" fill="#d8ae59"/><path d="m257.716 224.366c-11.81-12.6-26.83-33.01-33.78-60.6a49.875 49.875 0 0 0 -16.22-25.42c-.144-1.356-6.69-65.839 58.873-114.9a138.449 138.449 0 0 0 -13.553-6.6 8.768 8.768 0 0 0 -8.23.78c-74.33 49.61-67.24 119.31-67.09 120.72a49.875 49.875 0 0 1 16.22 25.42c6.95 27.59 21.97 48 33.78 60.6a118.786 118.786 0 0 0 16.48 14.86c.62-.22 1.24-.44 1.87-.65l23.58-1.75c.64.14 1.26.3 1.85.47l.079-.06a132.054 132.054 0 0 1 -13.859-12.87z" fill="#8d6fad"/><path d="m276.567 128.666a6 6 0 0 0 -11.9 1.565c.073.553 6.756 53.855-11.411 99.53.851-60.924-23.782-115.022-24.888-117.415a6 6 0 0 0 -10.893 5.032c.272.591 27.235 59.771 23.433 121.674a6 6 0 0 0 5.621 6.357c.125.008.249.011.373.011a6 6 0 0 0 5.622-3.917 5.991 5.991 0 0 0 9.615-1.907c22.152-49.832 14.754-108.459 14.428-110.93z" fill="#766093"/><path d="m281.05 244.85c-1.68-3.52-4.76-6.24-9.72-7.72-.59-.17-1.21-.33-1.85-.47a40.374 40.374 0 0 0 -13.82-.5 50.819 50.819 0 0 0 -9.76 2.25c-.63.21-1.25.43-1.87.65-.71.27-1.41.54-2.1.82a19.977 19.977 0 0 0 -11.11 11.52 20.581 20.581 0 0 0 2.14 18.61c12.26 18.42 15.78 26.62 15.78 26.62l11.19 7.32c.45-.61 13.03-17.85 19.28-34.82h.01a53.058 53.058 0 0 0 3.36-14.02 20.212 20.212 0 0 0 -1.53-10.26z" fill="#d8ae59"/><path d="m259.93 303.96a28.784 28.784 0 0 1 3.57 11.45c.67 6.48-.67 12.45-3.29 16.44l-.01-.01a2.2 2.2 0 0 0 -.13.22c0 .01-.01.02-.02.04-1.86 2.72-4.33 4.48-7.17 4.78-5.75.61-11.24-4.95-13.65-13.11l-.01-.01a32.051 32.051 0 0 1 -1.11-5.66c-1.14-11.11 3.62-20.72 10.63-21.47 4.25-.45 8.36 2.47 11.19 7.32z" fill="#bc8e3b"/></svg>