<svg id="Layer_1" height="512" viewBox="0 0 512 512" width="512" xmlns="http://www.w3.org/2000/svg" data-name="Layer 1"><path d="m433.91 99.29c-17.16-7.46-25.87-40.98-68.47-49.69-15.32-3.14-28.04.71-38.59 8.97-44.24 34.62-50.31 146.82-50.31 146.82l49.28 59.38s42.66 11.23 73.89 26.85a149.71 149.71 0 0 1 14.26 8.03s60.28 5.74 69.26-32.8c5.48-23.58 6.58-53.01 10.51-67.81 16.17-60.93-59.83-99.75-59.83-99.75z" fill="#6cbff6"/><path d="m429.72 314.21c-2.95-5-8.58-9.9-15.75-14.56a149.71 149.71 0 0 0 -14.26-8.03c-31.23-15.62-73.89-26.85-73.89-26.85l-83.82 8.54a414.021 414.021 0 0 1 -41.72 42.44s-67.1 70.46-12.89 143.39c27.47 36.95 46.22 19.12 79.87 19.12 40.2 0 59.26-8.97 70.11-14.03 34.09-15.9 35.92-24.23 55.68-47.16 13.95-16.21 67.52-50.49 36.67-102.86z" fill="#a1ddff"/><path d="m160.71 126.35c-30.92-15.74-65.81-19.29-98.58 9.27-46.13 40.21-33.65 63.4-40.19 103.6s-13.09 77.8 12.15 93.69 43.93 26.18 69.17 24.31c19.95-1.48 49.5-.33 97.02-41.47a414.021 414.021 0 0 0 41.72-42.44l12.03-58.68s-40.97-61.63-93.32-88.28z" fill="#6cbff6"/><path d="m217.39 459.14c-54.21-72.93 12.89-143.39 12.89-143.39 11.155-9.658 28.972-29.085 43.51-45.679l-31.79 3.239a414.021 414.021 0 0 1 -41.72 42.44s-67.1 70.46-12.89 143.39c20.2 27.176 35.691 24.72 55.858 21.519-8.23-2.759-16.543-8.989-25.858-21.519z" fill="#7db8d1"/><path d="m64.09 332.91c-25.24-15.89-18.7-53.48-12.15-93.69s-5.94-63.39 40.19-103.6c12.658-11.032 25.632-17.256 38.572-19.854-22.541-4.233-46.057.231-68.572 19.854-46.13 40.21-33.65 63.4-40.19 103.6s-13.09 77.8 12.15 93.69 43.93 26.18 69.17 24.31c3.621-.269 7.56-.452 11.863-.815-16.994-2.888-32.188-11.624-51.033-23.495z" fill="#539cc4"/><path d="m270.71 30.69c-21.49 4.65-34.19 25.16-55.14 22.98-27.55-2.87-41.72-13.6-58 12.64-15.52 25 .36 55.15 3.14 60.04 52.35 26.65 93.32 88.28 93.32 88.28l22.51-9.24s6.07-112.2 50.31-146.82c-17.81-24.7-34.89-32.47-56.14-27.88z" fill="#a1ddff"/><path d="m200.878 132.031a38.462 38.462 0 0 1 -16.878-21.531c-3.723-12.154-5.788-29.111 3.575-44.194 4.8-7.743 9.426-12.25 14.261-14.706-19.013-3.474-30.936-6.778-44.266 14.71-15.52 25 .36 55.15 3.14 60.04 52.35 26.65 93.32 88.28 93.32 88.28l22.51-9.24s.021-.382.066-1.076c-12.847-17.046-41.199-51.296-75.728-72.283z" fill="#7eb6ce"/><path d="m297.224 384.327c-.114 0-.227 0-.342-.012a5 5 0 0 1 -4.652-5.325c3.061-45.306-9.306-83.544-9.432-83.925a5 5 0 0 1 9.5-3.13c.538 1.626 13.11 40.391 9.913 87.729a5 5 0 0 1 -4.987 4.663z" fill="#5d91a3"/><path d="m336.4 339.055a5 5 0 0 1 -4.942-4.281c-4.63-31.845-25.35-44.4-26.23-44.923a5 5 0 0 1 5.029-8.644c1.049.608 25.741 15.293 31.1 52.127a5.006 5.006 0 0 1 -4.954 5.721z" fill="#5d91a3"/><path d="m243.984 356.438a5 5 0 0 1 -4.482-7.211c19.537-39.675 13.554-60.666 13.491-60.873a5 5 0 0 1 9.53-3.028c.317.981 7.51 24.536-14.049 68.32a5 5 0 0 1 -4.49 2.792z" fill="#5d91a3"/><g fill="#3c7d99"><path d="m224.535 248.891c-17.53 0-48.313-1.55-78.8-10.588a5 5 0 0 1 2.843-9.588c43.683 12.95 89.4 9.816 89.86 9.784a5 5 0 1 1 .724 9.974c-.639.047-6.045.418-14.627.418z"/><path d="m189.677 289.047q-2.827 0-5.781-.222a5 5 0 0 1 .762-9.971c32.208 2.462 51.869-19.969 52.064-20.195a5 5 0 1 1 7.588 6.512c-.88 1.029-20.902 23.876-54.633 23.876z"/><path d="m248.463 229.022a4.977 4.977 0 0 1 -.854-.074c-1.592-.274-39.292-7.047-65.312-35.943a5 5 0 1 1 7.43-6.691c23.646 26.257 59.228 32.718 59.584 32.78a5 5 0 0 1 -.848 9.928z"/><path d="m318.324 230.16a5 5 0 0 1 -2.475-9.349c.367-.209 37.009-21.261 65.53-56.636a5 5 0 0 1 7.786 6.277c-29.761 36.911-66.816 58.169-68.379 59.055a4.976 4.976 0 0 1 -2.462.653z"/><path d="m334.984 250.33a59.473 59.473 0 0 1 -10.416-.8 5 5 0 0 1 1.872-9.823c.385.071 28.449 4.96 53.532-15.339a5 5 0 0 1 6.291 7.774 81.316 81.316 0 0 1 -51.279 18.188z"/><path d="m294.252 213.981a5 5 0 0 1 -2.487-9.34c.383-.231 18.206-11.306 30.7-53.412a5 5 0 1 1 9.587 2.843c-13.882 46.795-34.489 58.783-35.36 59.271a4.971 4.971 0 0 1 -2.44.638z"/></g><path d="m262.708 216.344a5 5 0 0 1 -4.923-4.156c-6.115-35.674-18.021-56.852-18.14-57.061a5 5 0 1 1 8.687-4.953c.524.919 12.9 22.933 19.31 60.324a5.007 5.007 0 0 1 -4.934 5.846z" fill="#5d91a3"/><path d="m319.32 224.16a45.873 45.873 0 0 0 -56.61-14.82 45.94 45.94 0 0 0 -25.91 34.15 46.212 46.212 0 0 0 .71 18.45 45.863 45.863 0 0 0 9.28 18.34h.01l72.82-2.99.01.01a45.936 45.936 0 0 0 -.31-53.14z" fill="#f9a0bd"/><path d="m257.77 289.87a45.721 45.721 0 0 1 -10.97-9.59c.52-.14 19.93-5.28 18.33-20.86-1.49-14.52 8.65-22.99 16.65-27.34a10.031 10.031 0 0 1 13.49 3.67l24.35 41.54.01.01a46.072 46.072 0 0 1 -9.87 10.23 45.482 45.482 0 0 1 -22.21 8.97 44.928 44.928 0 0 1 -5.48.33 45.622 45.622 0 0 1 -24.3-6.96z" fill="#ffc0d2"/></svg>