<?xml version="1.0" encoding="iso-8859-1"?>
<!-- Generator: Adobe Illustrator 19.0.0, SVG Export Plug-In . SVG Version: 6.00 Build 0)  -->
<svg version="1.1" id="Capa_1" xmlns="http://www.w3.org/2000/svg" xmlns:xlink="http://www.w3.org/1999/xlink" x="0px" y="0px"
	 viewBox="0 0 512.001 512.001" style="enable-background:new 0 0 512.001 512.001;" xml:space="preserve">
<path style="fill:#619243;" d="M193.832,387.658c0,50.847,24.42,95.988,62.168,124.343l22.505-124.343L256,263.315
	C218.252,291.67,193.832,336.811,193.832,387.658z"/>
<path style="fill:#88AD72;" d="M256,512.001c37.748-28.355,62.168-73.496,62.168-124.343c0-50.846-24.42-95.987-62.168-124.343
	V512.001z"/>
<path style="fill:#619243;" d="M355.046,360.864c48.358,15.712,98.836,6.438,137.468-20.701L381.21,280.335L256,263.315
	C271.303,307.979,306.688,345.152,355.046,360.864z"/>
<path style="fill:#88AD72;" d="M492.514,340.164c-15.303-44.663-50.688-81.837-99.047-97.549
	c-48.356-15.714-98.835-6.438-137.467,20.7L492.514,340.164z"/>
<path style="fill:#619243;" d="M379.382,199.261c29.887-41.136,36.665-92.009,22.792-137.137l-91.295,87.367L256,263.315
	C303.205,262.564,349.495,240.397,379.382,199.261z"/>
<path style="fill:#88AD72;" d="M402.173,62.124c-47.205,0.752-93.495,22.918-123.382,64.054
	c-29.886,41.136-36.664,92.009-22.791,137.137L402.173,62.124z"/>
<path style="fill:#619243;" d="M233.209,126.179c-29.887-41.136-76.177-63.302-123.382-64.055l54.88,113.824L256,263.315
	C269.872,218.187,263.095,167.314,233.209,126.179z"/>
<path style="fill:#88AD72;" d="M109.826,62.124c-13.872,45.128-7.095,96.002,22.792,137.137S208.795,262.564,256,263.315
	L109.826,62.124z"/>
<path style="fill:#619243;" d="M118.532,242.614c-48.358,15.712-83.744,52.887-99.047,97.549l125.213-17.02L256,263.315
	C217.368,236.177,166.889,226.901,118.532,242.614z"/>
<path style="fill:#88AD72;" d="M19.485,340.164c38.632,27.138,89.111,36.414,137.468,20.701
	c48.358-15.712,83.744-52.886,99.046-97.549L19.485,340.164z"/>
<path style="fill:#FFDB92;" d="M375.521,316.177c61.388-19.947,118.326-75.343,130.905-134.231l-163.218-15.968
	c0-64.548-35.091-135.816-87.209-165.978L150.366,269.531l92.294,123.79c37.941,52.221,108.22,89.252,168.113,83.019l-145.48-155.66
	C301.472,328.686,341.189,327.332,375.521,316.177z"/>
<g>
	<path style="fill:#FFEBC2;" d="M279.393,299.404c18.599-35.675,30.057-86.329,30.057-133.425
		c0-64.548-21.507-135.816-53.451-165.978c-46.509,26.915-79.434,86.565-85.988,144.962
		c-57.563-11.813-124.468,1.068-164.438,36.984c11.226,52.549,57.773,102.315,111.285,126.593
		c-29.014,51.094-37.433,118.694-15.63,167.801c53.16,5.532,115.122-23.696,154.771-66.7c-4.54-5.298-9.368-10.852-13.34-16.319
		c-20.124-27.699-33.371-62.731-37.729-97.737c9.121,6.178,19.159,11.424,29.831,15.721c-2.094-4.862-4.051-9.732-5.86-14.591
		C244.288,299.3,261.49,300.16,279.393,299.404z"/>
	<path style="fill:#FFEBC2;" d="M341.992,144.792c0.299,7.292,1.216,14.413,1.216,21.189c0,46.624-18.314,96.744-48.122,132.357
		c23.486-2.174,47.608-6.988,70.003-14.264c61.388-19.947,122.523-62.425,141.338-102.124
		C466.641,146.197,399.376,133.26,341.992,144.792z"/>
	<path style="fill:#FFEBC2;" d="M375.521,316.177c-44.345,14.408-97.677,12.477-140.759-4.871
		c9.331,21.667,21.369,43.124,35.209,62.173c37.941,52.221,97.23,97.236,140.802,102.861
		c21.686-48.844,12.85-116.829-15.789-167.825C388.125,311.354,381.93,314.096,375.521,316.177z"/>
</g>
<circle style="fill:#FFDB92;" cx="256" cy="263.311" r="67.52"/>
<circle style="fill:#E8A44D;" cx="256" cy="263.311" r="33.758"/>
<g>
	<circle style="fill:#EF7F4A;" cx="256" cy="195.801" r="8.44"/>
	<circle style="fill:#EF7F4A;" cx="216.31" cy="208.691" r="8.44"/>
	<circle style="fill:#EF7F4A;" cx="191.79" cy="242.451" r="8.44"/>
	<circle style="fill:#EF7F4A;" cx="191.79" cy="284.181" r="8.44"/>
	<circle style="fill:#EF7F4A;" cx="216.31" cy="317.941" r="8.44"/>
	<circle style="fill:#EF7F4A;" cx="256" cy="330.831" r="8.44"/>
	<circle style="fill:#EF7F4A;" cx="295.69" cy="317.941" r="8.44"/>
	<circle style="fill:#EF7F4A;" cx="320.21" cy="284.181" r="8.44"/>
	<circle style="fill:#EF7F4A;" cx="320.21" cy="242.451" r="8.44"/>
	<circle style="fill:#EF7F4A;" cx="295.69" cy="208.691" r="8.44"/>
</g>
<g>
</g>
<g>
</g>
<g>
</g>
<g>
</g>
<g>
</g>
<g>
</g>
<g>
</g>
<g>
</g>
<g>
</g>
<g>
</g>
<g>
</g>
<g>
</g>
<g>
</g>
<g>
</g>
<g>
</g>
</svg>
