<svg id="Capa_1" enable-background="new 0 0 496.998 496.998" height="512" viewBox="0 0 496.998 496.998" width="512" xmlns="http://www.w3.org/2000/svg"><g><path d="m134.864 393.71c14.232 55.375 50.783 94.784 93.635 94.784 6.85 0 13.538-1.009 20-2.927 6.462 1.918 13.15 2.927 20 2.927 42.853 0 79.403-39.409 93.635-94.784z" fill="#50499c"/><path d="m308.499 282.304c-24.853 0-45-20.147-45-45h-30c0 24.853-20.147 45-45 45-33.137 0-60 26.863-60 60 0 18.093 2.254 35.413 6.365 51.406 14.232 37.849 50.783 64.784 93.635 64.784 6.85 0 13.538-.69 20-2.001 6.462 1.311 13.15 2.001 20 2.001 42.853 0 79.403-26.935 93.635-64.784 4.11-15.993 6.365-33.313 6.365-51.406 0-33.137-26.863-60-60-60z" fill="#4562b5"/><path d="m362.134 393.71c57.063 3.576 105.838-19.007 119.08-59.763 2.117-6.514 3.223-13.187 3.397-19.926 3.821-5.553 6.848-11.602 8.964-18.117 13.242-40.755-12.943-87.695-61.21-118.342z" fill="#3b7ace"/><path d="m309.837 194.147c-7.68 23.636-33.067 36.572-56.703 28.892l-9.271 28.532c23.636 7.68 36.572 33.067 28.892 56.703-10.24 31.515 7.007 65.365 38.522 75.604 17.207 5.591 34.376 8.799 50.857 9.832 40.394-1.84 77.306-28.278 90.548-69.033 2.117-6.514 3.527-13.088 4.278-19.639 3.244-5.741 5.966-11.889 8.083-18.403 13.242-40.755-1.08-83.841-32.678-109.072-13.94-8.851-29.716-16.347-46.923-21.938-31.515-10.241-65.365 7.006-75.605 38.522z" fill="#3093e6"/><path d="m432.365 177.562c21.035-53.165 14.629-106.532-20.04-131.72-5.541-4.026-11.545-7.141-17.901-9.388-4.101-5.35-8.918-10.098-14.46-14.124-34.668-25.188-87.403-14.79-131.465 21.645z" fill="#50499c"/><path d="m226.408 165.631c20.106 14.608 24.564 42.75 9.955 62.856l24.271 17.634c14.608-20.106 42.75-24.564 62.856-9.955 26.808 19.477 64.331 13.535 83.808-13.274 10.635-14.637 18.991-29.975 25.066-45.329 10.733-38.985-3.005-82.261-37.674-107.449-5.541-4.026-11.358-7.399-17.356-10.137-4.458-4.859-9.463-9.348-15.004-13.374-34.668-25.188-80.071-24.881-113.832-2.626-12.726 10.522-24.73 23.21-35.365 37.847-19.476 26.808-13.533 64.33 13.275 83.807z" fill="#4562b5"/><path d="m64.633 177.563c-48.267 30.647-74.452 77.587-61.21 118.342 2.117 6.514 5.143 12.563 8.964 18.117.173 6.739 1.28 13.411 3.397 19.926 13.242 40.755 62.017 63.339 119.08 59.763z" fill="#3b7ace"/><path d="m224.242 308.273c-7.68-23.636 5.255-49.023 28.892-56.703l-9.271-28.532c-23.636 7.68-49.023-5.255-56.703-28.892-10.24-31.515-44.089-48.762-75.604-38.522-17.207 5.591-32.983 13.087-46.923 21.938-31.598 25.231-45.92 68.317-32.678 109.072 2.117 6.514 4.839 12.662 8.083 18.403.75 6.551 2.161 13.125 4.278 19.639 13.242 40.755 50.154 67.194 90.548 69.033 16.48-1.033 33.649-4.241 50.857-9.832 31.514-10.239 48.761-44.088 38.521-75.604z" fill="#3093e6"/><path d="m248.499 43.976c-44.063-36.434-96.797-46.833-131.465-21.645-5.541 4.026-10.359 8.774-14.46 14.124-6.355 2.247-12.359 5.362-17.901 9.388-34.668 25.188-41.075 78.555-20.04 131.72z" fill="#4562b5"/><path d="m173.508 236.166c20.106-14.608 48.248-10.151 62.856 9.955l24.27-17.634c-14.608-20.106-10.151-48.248 9.955-62.856 26.808-19.477 32.751-57 13.274-83.808-10.635-14.637-22.639-27.325-35.365-37.847-33.761-22.255-79.163-22.562-113.832 2.626-5.541 4.026-10.547 8.515-15.004 13.374-5.999 2.738-11.815 6.111-17.356 10.137-34.668 25.189-48.406 68.464-37.673 107.449 6.075 15.354 14.432 30.692 25.066 45.329 19.478 26.809 57 32.752 83.809 13.275z" fill="#3b7ace"/><circle cx="248.499" cy="237.304" fill="#ff8229" r="24.256"/><g fill="#ffe852"><circle cx="248.499" cy="262.804" r="15"/><circle cx="272.751" cy="245.184" r="15"/><circle cx="263.487" cy="216.674" r="15"/><circle cx="233.51" cy="216.674" r="15"/><circle cx="224.247" cy="245.184" r="15"/></g></g></svg>